<svg width="237" height="225" viewBox="0 0 237 225" fill="none" xmlns="http://www.w3.org/2000/svg">
<path d="M181.243 86.1503L170.322 90.0745L171.249 77.7522L178.823 76.9576C178.225 80.0862 179.102 83.1468 181.243 86.1503Z" fill="#FFB8B8"/>
<path d="M210.666 217.236L206.555 218.572L199.953 204.908L206.021 202.936L210.666 217.236Z" fill="#FFB9B9"/>
<path d="M195.625 221.615C195.617 222.051 195.682 222.486 195.817 222.9C195.942 223.288 196.216 223.61 196.579 223.795C196.941 223.981 197.363 224.014 197.75 223.889L211.056 219.566C211.186 219.523 211.308 219.455 211.412 219.366C211.517 219.276 211.602 219.167 211.665 219.044C211.727 218.922 211.764 218.788 211.775 218.651C211.785 218.513 211.769 218.375 211.726 218.245L211.546 217.689C211.546 217.689 211.661 215.805 209.637 214.186C209.637 214.186 208.477 216.346 205.139 214.639L203.958 213.531L199.868 219.218L197.009 220.552C196.384 220.844 195.776 220.939 195.625 221.614L195.625 221.615Z" fill="#090814"/>
<path d="M171.023 221.271H166.267L164.004 206.235H171.024L171.023 221.271Z" fill="#FFB9B9"/>
<path d="M154.576 220.786C154.427 221.197 154.351 221.631 154.351 222.068C154.36 222.485 154.535 222.881 154.836 223.169C155.137 223.458 155.541 223.615 155.958 223.606H170.616C170.9 223.612 171.176 223.505 171.381 223.308C171.587 223.111 171.706 222.841 171.712 222.556V221.972C171.712 221.972 172.437 220.216 170.944 218.051C170.944 218.051 169.089 219.746 166.316 217.091L165.499 215.673L159.58 219.817L156.3 220.203C155.582 220.287 154.946 220.19 154.576 220.785V220.786Z" fill="#090814"/>
<path d="M161.65 127.185L158.183 134.464L164.075 210.02H171.443L174.472 160.458L200.917 210.02H209.955L196.307 174.667L186.951 128.572L161.65 127.185Z" fill="#090814"/>
<path d="M179.686 81.5121L170.53 82.1048L167.717 85.7681L160.157 89.3833L161.801 112.064L160.976 128.602L162.106 128.569C170.174 128.291 178.213 129.683 185.718 132.658C187.639 133.431 189.652 133.863 191.385 133.429C191.385 133.429 190.727 130.799 190.07 130.142C189.412 129.484 189.084 128.941 189.412 128.555C189.741 128.169 190.399 127.841 189.741 127.183C189.348 126.785 189.114 126.257 189.084 125.698L187.112 111.077L191.056 90.3678L182.839 85.766L179.686 81.5121Z" fill="#00D6B5"/>
<path d="M195.912 109.182L195.663 128.58L190.837 145.872L186.978 144.432L188.691 128.583L188.466 107.134L195.912 109.182Z" fill="#FFB9B9"/>
<path d="M190.821 148.659C191.273 146.173 190.444 143.94 188.967 143.671C187.491 143.402 185.927 145.2 185.474 147.686C185.022 150.172 185.852 152.406 187.328 152.675C188.804 152.944 190.368 151.146 190.821 148.659Z" fill="#FFB9B9"/>
<path d="M189.083 89.3837C189.083 89.3837 194.528 90.2273 194.599 94.9005C194.671 99.5737 199.93 107.134 196.644 113.051L188.098 114.366L183.496 97.6013" fill="#00D6B5"/>
<path d="M164.226 105.766L153.374 121.846L139.85 133.653L137.414 130.334L147.544 118.024L159.125 99.9693L164.226 105.766Z" fill="#FFB9B9"/>
<path d="M138.307 135.977C140.051 134.147 140.584 131.825 139.497 130.789C138.411 129.754 136.116 130.398 134.373 132.227C132.629 134.057 132.096 136.38 133.182 137.415C134.269 138.451 136.563 137.807 138.307 135.977Z" fill="#FFB9B9"/>
<path d="M169.381 85.467C169.381 85.467 173.47 89.1605 170.966 93.1065C168.461 97.0525 168.709 106.259 162.714 109.401L154.848 105.811C155.511 99.3283 155.897 92.6075 160.2 89.2707L169.467 84.7368" fill="#00D6B5"/>
<path d="M174.22 79.1541C178.736 79.1541 182.398 75.4929 182.398 70.9765C182.398 66.4601 178.736 62.7988 174.22 62.7988C169.704 62.7988 166.042 66.4601 166.042 70.9765C166.042 75.4929 169.704 79.1541 174.22 79.1541Z" fill="#FFB9B9"/>
<path d="M180.226 77.6956C180.676 77.7723 181.204 76.6806 181.71 75.6171C182.768 73.391 183.441 71.976 183.492 69.9757C183.536 68.2709 183.062 68.7184 182.601 64.9283C182.449 63.6783 180.313 63.6807 179.879 63.0871C179.145 62.0843 180.271 61.6709 178.444 61.0685C175.023 59.9403 173.476 61.6929 171.303 61.844C171.248 61.8478 170.171 62.9013 169.569 62.9558C168.515 63.0513 166.994 62.8871 166.312 61.2813C165.675 59.7797 165.253 64.1676 165.823 64.7107C166.322 65.235 166.77 65.8049 167.162 66.4132C167.186 66.5083 165.177 64.284 164.843 65.2006C164.602 65.8602 165.361 69.2547 165.975 69.3822C166.488 69.4889 167.742 67.798 167.459 68.4914C166.803 70.0996 170.75 71.1258 175.476 67.8987C175.644 67.7843 175.485 67.9669 176.068 69.3834C176.806 71.1697 176.972 71.2666 176.959 71.7585C176.931 72.8235 176.132 73.1373 176.367 73.837C176.484 74.1266 176.692 74.3701 176.96 74.5308C177.228 74.6915 177.541 74.7607 177.851 74.7278C178.478 74.5986 178.585 73.8234 179.039 73.837C179.427 73.8488 179.889 74.4341 179.93 75.0247C180.016 76.2693 178.174 76.6113 177.851 78.2906C177.669 79.2389 179.813 77.6262 180.226 77.6979L180.226 77.6956Z" fill="#090814"/>
<path d="M115.49 223.979H45.2234C40.1559 223.973 35.2975 221.957 31.7142 218.374C28.131 214.791 26.1154 209.932 26.1097 204.865V19.1136C26.1154 14.0461 28.131 9.18777 31.7142 5.60449C35.2975 2.02121 40.1559 0.00564731 45.2234 0L115.49 0C120.557 0.00564731 125.415 2.02121 128.999 5.60449C132.582 9.18777 134.598 14.0461 134.603 19.1136C135.911 93.7057 138.142 177.238 134.603 204.866C134.597 209.933 132.582 214.791 128.998 218.374C125.415 221.957 120.557 223.973 115.49 223.979Z" fill="#090814"/>
<path d="M135.582 68.3254C135.367 68.3256 135.162 68.4109 135.01 68.5625C134.858 68.7141 134.773 68.9197 134.773 69.1341V95.009C134.771 95.1164 134.79 95.2233 134.83 95.3232C134.87 95.4231 134.929 95.514 135.004 95.5908C135.079 95.6675 135.169 95.7285 135.268 95.7701C135.368 95.8117 135.474 95.8331 135.581 95.8331C135.689 95.8331 135.795 95.8117 135.895 95.7701C135.994 95.7285 136.083 95.6675 136.159 95.5908C136.234 95.514 136.293 95.4231 136.333 95.3232C136.373 95.2233 136.392 95.1164 136.39 95.009V69.1341C136.39 68.9198 136.305 68.7142 136.153 68.5626C136.002 68.411 135.796 68.3257 135.582 68.3254Z" fill="#090814"/>
<path d="M132.784 19.1136V204.862C132.784 209.254 131.113 213.481 128.11 216.686C125.108 219.892 120.998 221.835 116.616 222.121H116.612C116.478 222.129 116.345 222.137 116.208 222.141C115.97 222.153 115.73 222.158 115.488 222.158C115.488 222.158 114.599 222.093 112.973 221.971C111.332 221.85 108.943 221.668 105.963 221.43C105.069 221.361 104.126 221.286 103.133 221.203C101.152 221.042 98.9768 220.864 96.6432 220.662C95.7133 220.585 94.7511 220.5 93.7687 220.415C88.7473 219.982 83.1238 219.477 77.1926 218.904C76.19 218.811 75.1793 218.714 74.1605 218.613C73.8938 218.583 27.9289 207.03 27.9289 204.863V19.1136C27.9287 16.8422 28.3759 14.593 29.2451 12.4944C30.1142 10.3959 31.3882 8.48907 32.9944 6.88295C34.6005 5.27682 36.5073 4.00283 38.6059 3.13373C40.7045 2.26463 42.9537 1.81745 45.2251 1.81772H55.5515C56.3443 1.82492 57.1053 2.13054 57.6828 2.67369C58.2603 3.21684 58.612 3.95763 58.6678 4.74848C58.6799 4.85753 58.6921 4.96687 58.7122 5.07593C58.877 5.87769 59.3165 6.59676 59.9549 7.109C60.5934 7.62125 61.3906 7.89452 62.209 7.88163H98.5036C99.322 7.89452 100.119 7.62125 100.758 7.109C101.396 6.59676 101.836 5.87769 102 5.07593C102.02 4.96687 102.033 4.85753 102.045 4.74848C102.101 3.95743 102.452 3.21647 103.03 2.67329C103.608 2.13011 104.369 1.82462 105.162 1.81772H115.488C117.759 1.81749 120.008 2.26469 122.107 3.13379C124.205 4.0029 126.112 5.27687 127.718 6.88297C129.324 8.48906 130.598 10.3958 131.467 12.4943C132.336 14.5928 132.784 16.842 132.783 19.1133L132.784 19.1136Z" fill="white"/>
<path d="M25.7058 48.9196C25.4914 48.9198 25.2858 49.0051 25.1342 49.1567C24.9825 49.3083 24.8973 49.5139 24.8971 49.7283V56.1968C24.8951 56.3042 24.9145 56.4111 24.9542 56.511C24.9939 56.6109 25.0531 56.7018 25.1284 56.7786C25.2037 56.8553 25.2935 56.9163 25.3926 56.9579C25.4917 56.9995 25.5982 57.0209 25.7057 57.0209C25.8132 57.0209 25.9196 56.9995 26.0187 56.9579C26.1178 56.9163 26.2077 56.8553 26.283 56.7786C26.3582 56.7018 26.4175 56.6109 26.4572 56.511C26.4969 56.4111 26.5163 56.3042 26.5142 56.1968V49.7281C26.514 49.5137 26.4287 49.3082 26.2772 49.1567C26.1256 49.0051 25.9201 48.9199 25.7058 48.9196Z" fill="#090814"/>
<path d="M25.7058 68.3254C25.4914 68.3256 25.2858 68.4109 25.1342 68.5625C24.9825 68.7141 24.8973 68.9197 24.8971 69.1341V81.6673C24.8951 81.7748 24.9145 81.8816 24.9542 81.9815C24.9939 82.0814 25.0531 82.1724 25.1284 82.2492C25.2037 82.3259 25.2935 82.3869 25.3926 82.4285C25.4917 82.4701 25.5982 82.4915 25.7057 82.4915C25.8132 82.4915 25.9196 82.4701 26.0187 82.4285C26.1178 82.3869 26.2077 82.3259 26.283 82.2492C26.3582 82.1724 26.4175 82.0814 26.4572 81.9815C26.4969 81.8816 26.5163 81.7748 26.5142 81.6673V69.1341C26.5141 68.9198 26.4289 68.7142 26.2773 68.5626C26.1257 68.411 25.9202 68.3257 25.7058 68.3254Z" fill="#090814"/>
<path d="M25.7058 86.1145C25.4916 86.1148 25.2862 86.2 25.1347 86.3515C24.9833 86.503 24.898 86.7083 24.8977 86.9226V99.4575C24.8956 99.565 24.915 99.6718 24.9547 99.7717C24.9945 99.8716 25.0537 99.9626 25.129 100.039C25.2043 100.116 25.2941 100.177 25.3932 100.219C25.4923 100.26 25.5987 100.282 25.7063 100.282C25.8138 100.282 25.9202 100.26 26.0193 100.219C26.1184 100.177 26.2083 100.116 26.2835 100.039C26.3588 99.9626 26.418 99.8716 26.4578 99.7717C26.4975 99.6718 26.5169 99.565 26.5148 99.4575V86.9226C26.5145 86.7082 26.4291 86.5027 26.2775 86.3512C26.1258 86.1997 25.9202 86.1145 25.7058 86.1145Z" fill="#090814"/>
<path d="M55.3295 4.64951H39.7459C39.6951 4.64951 39.654 4.69063 39.654 4.74137V6.57924C39.654 6.62998 39.6951 6.67111 39.7459 6.67111H55.3295C55.3803 6.67111 55.4214 6.62998 55.4214 6.57924V4.74137C55.4214 4.69063 55.3803 4.64951 55.3295 4.64951Z" fill="#E6E6E6"/>
<path d="M107.717 6.6708C108.61 6.6708 109.334 5.9468 109.334 5.0537C109.334 4.1606 108.61 3.4366 107.717 3.4366C106.824 3.4366 106.1 4.1606 106.1 5.0537C106.1 5.9468 106.824 6.6708 107.717 6.6708Z" fill="#E6E6E6"/>
<path d="M112.165 6.6708C113.058 6.6708 113.782 5.9468 113.782 5.0537C113.782 4.1606 113.058 3.4366 112.165 3.4366C111.272 3.4366 110.548 4.1606 110.548 5.0537C110.548 5.9468 111.272 6.6708 112.165 6.6708Z" fill="#E6E6E6"/>
<path d="M116.612 6.6708C117.505 6.6708 118.229 5.9468 118.229 5.0537C118.229 4.1606 117.505 3.4366 116.612 3.4366C115.719 3.4366 114.995 4.1606 114.995 5.0537C114.995 5.9468 115.719 6.6708 116.612 6.6708Z" fill="#E6E6E6"/>
<path d="M117.126 148.8C117.126 130.368 101.546 120.227 83.7496 115.424C60.9318 109.267 44.222 121.727 50.3731 148.8C54.4572 166.775 75.1867 193.601 83.7496 177.278C93.5479 158.599 117.126 167.234 117.126 148.8Z" fill="#F2F2F2"/>
<path d="M0.00049525 224.028C-0.00256243 224.101 0.00892438 224.175 0.0342981 224.244C0.0596717 224.313 0.0984339 224.377 0.148366 224.431C0.198297 224.485 0.258417 224.529 0.325285 224.56C0.392152 224.59 0.464452 224.608 0.538048 224.611H236.462C236.609 224.599 236.746 224.532 236.845 224.424C236.945 224.316 237 224.175 237 224.028C237 223.881 236.945 223.739 236.845 223.631C236.746 223.523 236.609 223.456 236.462 223.445H0.538048C0.464427 223.447 0.392101 223.465 0.325213 223.496C0.258326 223.527 0.198192 223.57 0.148257 223.625C0.0983215 223.679 0.0595658 223.742 0.0342103 223.811C0.00885471 223.881 -0.00260243 223.954 0.00049525 224.028Z" fill="#E6E6E6"/>
<path d="M72.2782 145.51L68.2462 143.6C69.9001 145.908 71.3248 149.513 72.0879 152.381C73.3796 149.709 75.462 146.44 77.523 144.487L73.2617 145.584C75.8875 132.714 85.7641 123.477 97.0737 123.477L97.2337 123.012C85.4203 123.011 74.9594 132.121 72.2782 145.51Z" fill="#090814"/>
<path d="M90.8359 165.118H65.3593C64.8396 165.118 64.3411 164.912 63.9736 164.544C63.6061 164.177 63.3997 163.678 63.3997 163.159C63.3997 162.639 63.6061 162.14 63.9736 161.773C64.3411 161.405 64.8396 161.199 65.3593 161.199H90.835C91.3547 161.199 91.8532 161.405 92.2207 161.773C92.5882 162.14 92.7946 162.639 92.7946 163.159C92.7946 163.678 92.5882 164.177 92.2207 164.544C91.8532 164.912 91.3547 165.118 90.835 165.118H90.8359Z" fill="#00D6B5"/>
<path d="M114.651 63.5548V115.486C114.648 117.694 113.77 119.811 112.208 121.372C110.647 122.933 108.53 123.812 106.322 123.814H54.3908C52.1827 123.812 50.0657 122.933 48.5044 121.372C46.943 119.811 46.0648 117.694 46.0623 115.486V63.5548C46.0648 61.3467 46.943 59.2297 48.5044 57.6684C50.0657 56.107 52.1827 55.2288 54.3908 55.2263H106.322C108.53 55.2288 110.647 56.107 112.208 57.6684C113.77 59.2297 114.648 61.3467 114.651 63.5548ZM106.322 122.835C107.287 122.835 108.243 122.644 109.134 122.275C110.026 121.906 110.836 121.365 111.519 120.682C112.201 120 112.742 119.189 113.112 118.298C113.481 117.406 113.671 116.451 113.671 115.485V89.3042C113.671 84.9577 112.815 80.6537 111.152 76.638C109.488 72.6223 107.05 68.9736 103.977 65.9001C100.903 62.8266 97.2545 60.3886 93.2388 58.7253C89.2231 57.062 84.9191 56.2059 80.5726 56.2059H54.3908C52.4417 56.2059 50.5724 56.9802 49.1942 58.3584C47.8159 59.7367 47.0416 61.606 47.0416 63.5551V115.486C47.0416 117.435 47.8159 119.304 49.1942 120.682C50.5724 122.061 52.4417 122.835 54.3908 122.835H106.322V122.835Z" fill="#090814"/>
<path d="M87.2695 76.4358H70.5043C70.4024 76.4378 70.3011 76.4195 70.2064 76.3819C70.1116 76.3443 70.0253 76.2881 69.9525 76.2168C69.8797 76.1454 69.8219 76.0602 69.7824 75.9662C69.743 75.8722 69.7226 75.7713 69.7226 75.6694C69.7226 75.5674 69.743 75.4665 69.7824 75.3725C69.8219 75.2785 69.8797 75.1934 69.9525 75.122C70.0253 75.0506 70.1116 74.9945 70.2064 74.9569C70.3011 74.9192 70.4024 74.9009 70.5043 74.9029H87.2695C87.4702 74.9068 87.6613 74.9893 87.8018 75.1326C87.9423 75.276 88.021 75.4687 88.021 75.6694C88.021 75.8701 87.9423 76.0628 87.8018 76.2061C87.6613 76.3494 87.4702 76.4319 87.2695 76.4358Z" fill="#00D6B5"/>
<path d="M87.2695 92.7811H70.5043C70.4024 92.7831 70.3011 92.7648 70.2064 92.7272C70.1116 92.6895 70.0253 92.6334 69.9525 92.562C69.8797 92.4907 69.8219 92.4055 69.7824 92.3115C69.743 92.2175 69.7226 92.1166 69.7226 92.0147C69.7226 91.9127 69.743 91.8118 69.7824 91.7178C69.8219 91.6238 69.8797 91.5386 69.9525 91.4673C70.0253 91.3959 70.1116 91.3398 70.2064 91.3021C70.3011 91.2645 70.4024 91.2462 70.5043 91.2482H87.2695C87.4702 91.2521 87.6613 91.3346 87.8018 91.4779C87.9423 91.6212 88.021 91.8139 88.021 92.0147C88.021 92.2154 87.9423 92.4081 87.8018 92.5514C87.6613 92.6947 87.4702 92.7772 87.2695 92.7811Z" fill="#00D6B5"/>
<path d="M78.941 115.317H62.1758C62.0739 115.319 61.9726 115.301 61.8779 115.263C61.7831 115.226 61.6968 115.169 61.624 115.098C61.5512 115.027 61.4934 114.941 61.4539 114.847C61.4145 114.754 61.3941 114.653 61.3941 114.551C61.3941 114.449 61.4145 114.348 61.4539 114.254C61.4934 114.16 61.5512 114.075 61.624 114.003C61.6968 113.932 61.7831 113.876 61.8779 113.838C61.9726 113.801 62.0739 113.782 62.1758 113.784H78.941C79.1417 113.788 79.3328 113.871 79.4733 114.014C79.6138 114.157 79.6925 114.35 79.6925 114.551C79.6925 114.751 79.6138 114.944 79.4733 115.087C79.3328 115.231 79.1417 115.313 78.941 115.317Z" fill="#00D6B5"/>
<path d="M96.2659 84.6135H61.5079C61.406 84.6155 61.3047 84.5972 61.2099 84.5596C61.1152 84.5219 61.0289 84.4658 60.9561 84.3944C60.8833 84.3231 60.8255 84.2379 60.786 84.1439C60.7465 84.0499 60.7262 83.949 60.7262 83.847C60.7262 83.7451 60.7465 83.6442 60.786 83.5502C60.8255 83.4562 60.8833 83.371 60.9561 83.2997C61.0289 83.2283 61.1152 83.1722 61.2099 83.1345C61.3047 83.0969 61.406 83.0786 61.5079 83.0806H96.2659C96.4666 83.0845 96.6577 83.167 96.7983 83.3103C96.9388 83.4536 97.0175 83.6463 97.0175 83.847C97.0175 84.0478 96.9388 84.2405 96.7983 84.3838C96.6577 84.5271 96.4666 84.6096 96.2659 84.6135Z" fill="#00D6B5"/>
</svg>
